<svg version="1.1" xmlns="http://www.w3.org/2000/svg" style="display: block;" viewBox="0 0 2048 2048" width="1024" height="1024">
<path transform="translate(0,0)" fill="rgb(36,54,77)" d="M 983.577 49.5482 C 1521.77 26.9624 1976.38 444.927 1999 983.12 C 2021.62 1521.31 1603.68 1975.95 1065.49 1998.6 C 527.253 2021.26 72.5683 1603.27 49.9471 1065.04 C 27.3259 526.795 445.336 72.136 983.577 49.5482 z"/>
<path transform="translate(0,0)" fill="rgb(255,255,255)" d="M 998.554 69.1232 C 1525.78 54.8284 1964.85 470.472 1979.46 997.69 C 1994.08 1524.91 1578.69 1964.23 1051.49 1979.16 C 523.83 1994.1 84.0534 1578.29 69.4305 1050.62 C 54.8075 522.957 470.88 83.4301 998.554 69.1232 z"/>
<path transform="translate(0,0)" fill="rgb(242,132,54)" d="M 992.464 111.75 C 1495.96 94.0098 1918.56 487.668 1936.53 991.155 C 1954.5 1494.64 1561.04 1917.43 1057.56 1935.63 C 553.756 1953.84 130.638 1560.07 112.656 1056.25 C 94.674 552.439 488.642 129.501 992.464 111.75 z"/>
<path transform="translate(0,0)" fill="rgb(255,255,255)" d="M 999.63 121.444 C 1066.71 116.942 1157.3 127.951 1223.09 142.828 C 1458.75 196.437 1663.31 341.785 1791.47 546.682 C 1828.35 605.263 1859.95 669.523 1882.34 735.023 C 1933.47 884.649 1944.88 1056.15 1909.59 1210.49 C 1856.32 1451.79 1707.84 1661.34 1497.84 1791.59 C 1496.58 1758.05 1497.21 1724.23 1497.05 1690.66 L 1404.2 1690.44 L 1404.19 1843.51 C 1366.38 1860.83 1327.39 1874.28 1287.83 1886.92 C 1286.83 1863.37 1287.29 1839.62 1287.22 1816.04 L 1287.09 1690.37 C 1254.85 1691.11 1222.48 1690.3 1190.23 1690.12 C 1191.88 1763.41 1190.46 1837.03 1190.7 1910.36 C 1175.42 1912.63 1160.3 1915.88 1145 1918.07 C 1120.81 1921.36 1096.48 1923.47 1072.08 1924.37 C 1070.49 1846.44 1071.97 1768.11 1071.95 1690.14 L 1052.03 1690.32 C 1027.18 1690.46 1002.33 1690.43 977.479 1690.2 C 979.108 1768.38 978.171 1846.99 977.531 1925.19 C 936.945 1924.56 896.946 1917.39 856.904 1911.72 C 854.416 1838.14 856.177 1763.99 856.527 1690.35 L 760.262 1690.3 L 759.668 1888.23 C 720.233 1876.41 681.855 1861.31 644.935 1843.1 C 644.372 1792.21 644.257 1741.31 644.59 1690.42 C 612.459 1690.61 580.327 1690.61 548.196 1690.45 L 547.835 1789.94 C 501.54 1762.77 457.085 1728.73 417.388 1692.66 C 239.303 1531.37 132.756 1305.82 121.278 1065.82 C 111.391 827.286 195.843 594.454 356.353 417.724 C 498.403 259.719 692.004 157.367 902.566 128.953 C 934.792 124.549 967.169 122.917 999.63 121.444 z"/>
<path transform="translate(0,0)" fill="rgb(36,54,77)" d="M 326.89 721.974 C 318.886 716.441 313.348 709.867 311.485 700.065 C 309.573 690.011 311.676 678.382 317.759 670.055 C 323.582 662.203 332.354 657.063 342.05 655.822 C 352.522 654.396 363.334 657.756 371.444 664.459 C 379.03 670.638 383.728 679.676 384.425 689.435 C 384.672 692.961 383.962 696.452 382.961 699.814 C 398.438 711.028 415.018 721.783 429.209 734.607 C 458.037 705.756 491.75 690.365 532.846 690.22 C 572.901 690.471 611.27 706.371 639.761 734.527 C 678.296 772.771 695.122 833.717 694.867 886.776 C 694.702 921.223 684.245 969.683 658.449 994.589 C 653.442 999.422 648.722 1001.43 641.756 1001.28 C 622.252 1000.86 586.043 987.103 566.614 980.344 L 561.645 1006.11 C 624.696 1024.7 726.785 1058.11 759.945 1118.09 L 760.943 1116.98 C 777.243 1099.08 783.67 1110.58 782.474 1080.54 C 744.672 1045.2 741.306 1033.76 735.813 983.734 C 733.299 961.116 731.228 938.451 729.601 915.752 C 749.168 938.449 860.548 1074.32 860.592 1094 C 860.596 1095.77 859.724 1096.45 858.342 1097.5 C 852.57 1101.88 838.321 1102.92 831.209 1103.06 C 831.078 1112.37 828.468 1136.54 832.831 1143.39 C 834.392 1143.71 834.705 1144.13 836.197 1143.23 C 838.326 1141.94 839.235 1140.25 840.566 1138.25 L 841.527 1136.83 L 842.138 1135.89 C 850.842 1140.55 857.95 1145.33 865.418 1151.78 C 880.527 1141.22 894.55 1128.81 908.71 1117 C 925.851 1102.71 943.242 1088.55 960.126 1073.97 C 958.524 1064.47 959.162 1054.82 964.871 1046.7 C 970.459 1038.76 979.085 1033.91 988.642 1032.59 C 992.836 1032.02 995.219 1032.17 999.256 1033.5 C 999.827 1033.68 1003.59 1035.17 1003.85 1035.1 C 1007.26 1034.22 1111.22 930.355 1126.11 916.287 C 1118.44 905.45 1113.93 892.609 1116.48 879.209 C 1118.67 867.68 1125.94 857.582 1135.63 851.1 C 1146.19 844.043 1158.6 841.822 1170.97 844.649 C 1183.31 847.471 1194.36 855.036 1200.84 866.012 C 1207.02 876.501 1207.17 886.697 1206.67 898.42 C 1218.26 904.206 1229.18 911.931 1240.12 918.865 C 1260.33 931.556 1280.33 944.587 1300.1 957.955 C 1311.15 947.822 1322.34 941.456 1337.9 942.066 C 1351.48 942.598 1364.3 949.063 1373.37 959.109 C 1376.56 962.647 1379.03 967.084 1381.3 971.264 C 1465.76 921.104 1551.19 871.872 1633.4 818.079 C 1626.33 799.698 1625.04 781.379 1633.11 762.997 C 1639.72 747.584 1652.27 735.489 1667.91 729.451 C 1682.86 723.687 1699.51 724.18 1714.09 730.821 C 1729.4 737.957 1741.23 750.901 1746.97 766.787 C 1752.72 783.455 1751.57 801.728 1743.78 817.544 C 1736.85 831.715 1724.86 843.739 1709.76 848.882 C 1694.22 854.173 1675.87 852.716 1661.25 845.306 C 1653.65 841.449 1646.57 835.883 1641.55 828.954 L 1385.02 985.102 C 1384.1 1000.15 1380.25 1013.55 1368.53 1024.01 C 1359.02 1032.5 1346.49 1036.82 1333.77 1036.02 C 1320.97 1035.23 1309.02 1029.37 1300.58 1019.72 C 1292.15 1010.12 1287.98 997.5 1289.03 984.764 C 1289.44 979.26 1291.01 973.849 1292.83 968.66 C 1270.94 955.46 1249.56 941.361 1227.96 927.683 C 1218.79 921.873 1209.62 915.489 1200.1 910.305 C 1191.86 921.344 1181.53 929.672 1167.5 931.689 C 1156.33 933.296 1146.76 930.161 1136.54 926.216 C 1117.82 943.147 1100.32 961.25 1082.36 978.971 L 1015.13 1044.96 C 1020.24 1052.06 1022.56 1059.73 1021.22 1068.52 C 1019.96 1076.32 1015.6 1083.28 1009.14 1087.82 C 1001.93 1092.91 993.176 1094.39 984.607 1092.57 C 978.504 1091.28 973.764 1088.26 968.663 1084.84 C 945.623 1108.06 918.229 1128.66 893.048 1149.62 C 878.006 1162.15 863.79 1176.06 848.013 1187.61 C 847.66 1191.79 847.408 1196 846.858 1200.16 L 439.224 1199.4 C 417.978 1199.4 301.665 1202.49 290.316 1198.72 C 287.692 1195.34 288.265 1192.07 288.783 1188.08 C 291.478 1167.34 300.732 1148.22 306.263 1128.26 C 308.704 1119.45 307.573 1109.77 308.483 1100.73 C 310.772 1078.01 325.67 1055.04 343.576 1041.31 C 364.45 1025.3 390.52 1019.81 416.37 1023.17 C 418.264 1023.42 419.985 1023.85 421.808 1024.4 L 422.911 1018.16 C 412.494 1015.59 386.026 1012.01 380.183 1002.32 C 378.867 1000.14 378.699 998.916 379.15 996.456 C 382.781 990.255 389.065 987.779 395.752 985.911 C 410.259 981.858 426.783 982.497 441.784 982.243 C 445.312 967.917 449.963 953.949 454.004 939.771 C 424.352 926.541 400.544 909.578 388.405 878.086 C 386.117 872.15 384.457 865.99 383.454 859.708 L 312.444 861.055 C 309.707 874.36 304.235 886.094 292.532 893.873 C 280.9 901.604 264.424 904.512 250.93 901.261 C 238.435 898.251 227.995 889.745 221.589 878.715 C 214.575 866.683 212.677 852.342 216.321 838.9 C 219.674 826.622 227.383 815.682 238.602 809.441 C 250.423 802.865 265.149 802.002 277.933 806.111 C 282.541 807.593 286.962 809.843 291.278 812.013 C 302.781 781.857 314.653 751.841 326.89 721.974 z"/>
<path transform="translate(0,0)" fill="rgb(242,132,54)" d="M 422.911 1018.16 C 523.575 1040.53 638.571 1106.3 708.071 1182.8 L 683.275 1182.67 C 639.508 1139.98 588.379 1104.98 531.189 1082.82 C 513.593 1076 495.418 1071.23 477.662 1064.97 C 463.573 1043.93 445.68 1032.08 421.808 1024.4 L 422.911 1018.16 z"/>
<path transform="translate(0,0)" fill="rgb(242,132,54)" d="M 516.611 708.31 C 518.452 708.136 520.294 707.983 522.137 707.852 C 561.743 705.078 594.652 719.972 623.963 745.468 C 612.705 745.87 602.05 747.527 591.581 751.867 C 608.279 751.858 624.446 751.22 640.724 755.513 C 634.921 757.218 627.591 756.35 621.525 756.341 C 605.496 756.315 591.566 758.151 576.608 764.043 C 592.916 762.209 611.174 761.742 627.316 764.748 C 605.912 766.093 588.589 768.826 568.311 776.146 C 580.069 775.673 591.805 773.757 603.561 772.978 C 618.441 771.993 633.242 772.647 648.098 773.574 C 650.237 778.48 652.166 783.488 654.171 788.451 C 623.957 783.982 595.445 784.807 565.201 788.652 C 560.299 800.58 555.245 812.444 550.04 824.243 C 544.362 836.799 537.797 849.048 534.645 862.54 C 535.784 866.743 536.906 870.664 539.496 874.233 C 548.802 887.053 572.186 898.998 585.553 907.633 C 600.622 917.433 615.794 927.073 631.067 936.552 C 641.409 942.972 652.55 948.888 661.964 956.632 C 657.301 967.733 652.06 976.229 642.849 984.21 C 618.336 979.474 593.613 969.562 569.878 961.676 C 533.137 949.468 462.988 929.553 433.481 908.198 C 416.101 895.622 404.279 875.005 401.043 853.856 C 396.326 823.031 411.94 786.22 429.909 761.913 C 450.796 733.659 481.79 713.709 516.611 708.31 z"/>
<path transform="translate(0,0)" fill="rgb(36,54,77)" d="M 461.485 797.522 C 477.62 793.502 493.975 803.255 498.108 819.361 C 502.24 835.467 492.603 851.89 476.527 856.137 C 460.289 860.426 443.666 850.67 439.491 834.403 C 435.317 818.136 445.189 801.581 461.485 797.522 z"/>
<path transform="translate(0,0)" fill="rgb(242,132,54)" d="M 467.751 817.041 C 473.127 816.399 478.034 820.163 478.805 825.522 C 479.576 830.882 475.931 835.877 470.592 836.777 C 467.022 837.379 463.406 835.999 461.145 833.171 C 458.884 830.344 458.333 826.514 459.705 823.163 C 461.077 819.813 464.157 817.47 467.751 817.041 z"/>
<path transform="translate(0,0)" fill="rgb(255,255,255)" d="M 390.699 1040.34 C 431.28 1035.34 468.212 1064.23 473.138 1104.82 C 478.063 1145.41 449.113 1182.3 408.515 1187.15 C 368.013 1192 331.235 1163.13 326.321 1122.64 C 321.407 1082.15 350.212 1045.32 390.699 1040.34 z"/>
<path transform="translate(0,0)" fill="rgb(36,54,77)" d="M 388.888 1063.66 C 416.322 1057.76 443.38 1075.09 449.498 1102.47 C 455.616 1129.86 438.503 1157.05 411.166 1163.39 C 383.52 1169.79 355.95 1152.45 349.763 1124.75 C 343.576 1097.05 361.144 1069.62 388.888 1063.66 z"/>
<path transform="translate(0,0)" fill="rgb(242,132,54)" d="M 488.328 1087.87 C 503.234 1091.16 518.238 1097.29 532.255 1103.3 C 579.174 1123.42 618.954 1149.58 657.409 1182.99 L 628.25 1182.75 L 460.651 1181.95 C 467.889 1174.26 474.96 1166.69 480.238 1157.45 C 492.204 1136.51 494.58 1110.93 488.328 1087.87 z"/>
<path transform="translate(0,0)" fill="rgb(242,132,54)" d="M 1684.92 736.384 C 1714.04 734.022 1739.57 755.731 1741.91 784.861 C 1744.26 813.99 1722.53 839.5 1693.4 841.826 C 1664.29 844.149 1638.81 822.448 1636.47 793.344 C 1634.13 764.24 1655.81 738.744 1684.92 736.384 z"/>
<path transform="translate(0,0)" fill="rgb(255,255,255)" d="M 373.13 716.023 C 388.743 725.666 402.709 738.237 417.662 748.92 C 395.343 776.334 385.869 807.11 380.952 841.498 L 349.5 841.954 C 337.103 842.367 324.703 842.693 312.301 842.932 C 310.949 836.762 309.181 832.202 305.495 827.01 C 309.247 815.126 314.637 803.727 319.274 792.164 L 345.508 727.213 C 347.002 727.457 348.503 727.738 350.025 727.737 C 359.14 727.733 366.761 721.879 373.13 716.023 z"/>
<path transform="translate(0,0)" fill="rgb(242,132,54)" d="M 1331.41 955.968 C 1349.74 953.132 1366.94 965.579 1369.97 983.878 C 1373.01 1002.18 1360.75 1019.51 1342.48 1022.74 C 1330.49 1024.87 1318.28 1020.38 1310.51 1011 C 1302.74 1001.62 1300.62 988.79 1304.94 977.403 C 1309.26 966.016 1319.37 957.83 1331.41 955.968 z"/>
<path transform="translate(0,0)" fill="rgb(242,132,54)" d="M 1153.49 857.491 C 1170.21 853.317 1187.15 863.505 1191.3 880.235 C 1195.45 896.966 1185.24 913.891 1168.51 918.02 C 1151.8 922.141 1134.92 911.954 1130.77 895.255 C 1126.63 878.556 1136.79 861.657 1153.49 857.491 z"/>
<path transform="translate(0,0)" fill="rgb(242,132,54)" d="M 261.535 822.489 C 278.32 821.242 292.964 833.777 294.321 850.553 C 295.678 867.329 283.24 882.055 266.474 883.523 C 249.55 885.005 234.655 872.425 233.285 855.492 C 231.915 838.558 244.593 823.747 261.535 822.489 z"/>
<path transform="translate(0,0)" fill="rgb(242,132,54)" d="M 750.988 968.476 C 758.53 973.597 804.153 1038.95 813.857 1052.11 C 821.834 1062.93 830.63 1073.16 838.144 1084.31 C 823.287 1083.85 807.13 1075.28 795.297 1066.77 C 753.418 1036.64 758.255 1014.45 750.988 968.476 z"/>
<path transform="translate(0,0)" fill="rgb(242,132,54)" d="M 343.52 674.702 C 352.741 672.866 361.757 678.675 363.895 687.831 C 366.034 696.986 360.525 706.188 351.444 708.626 C 345.299 710.277 338.742 708.447 334.34 703.852 C 329.938 699.258 328.39 692.629 330.301 686.56 C 332.212 680.49 337.28 675.945 343.52 674.702 z"/>
<path transform="translate(0,0)" fill="rgb(242,132,54)" d="M 841.03 1170.52 L 841.398 1170.67 L 841.734 1171.59 C 837.441 1175.98 832.268 1179.54 827.39 1183.25 L 758.308 1183.02 L 757.567 1182.12 C 758.752 1178.24 762.983 1174.15 765.535 1170.96 C 790.67 1170.81 815.919 1171.55 841.03 1170.52 z"/>
<path transform="translate(0,0)" fill="rgb(242,132,54)" d="M 989.124 1047.08 C 992.167 1047.24 995.553 1047.36 998.354 1048.65 C 1002.38 1050.5 1005.61 1054.21 1006.85 1058.46 C 1008.09 1062.69 1007.47 1067.25 1005.15 1071 C 1002 1076.18 997.458 1077.75 991.805 1078.94 C 989.846 1078.66 987.93 1078.3 986.034 1077.72 C 981.699 1076.4 977.834 1073.72 975.87 1069.53 C 974.2 1065.96 974.184 1061.99 975.724 1058.37 C 978.3 1052.32 983.301 1049.44 989.124 1047.08 z"/>
<path transform="translate(0,0)" fill="rgb(242,132,54)" d="M 468.674 946.153 C 481.175 951.984 494.918 956.557 508.034 960.798 C 520.586 964.858 543.531 969.489 553.246 976.538 L 553.442 977.983 L 551.445 978.622 C 522.454 969.826 494.246 962.522 463.853 960.571 C 465.101 955.585 466.821 950.931 468.674 946.153 z"/>
<path transform="translate(0,0)" fill="rgb(242,132,54)" d="M 458.949 973.805 C 472.108 974.073 542.121 987.598 548.611 995.702 C 549.479 996.787 548.89 998.306 548.755 999.591 C 519.414 989.07 489.502 984.648 459.08 978.92 L 458.153 977.535 L 458.949 973.805 z"/>
<path transform="translate(0,0)" fill="rgb(242,132,54)" d="M 316.664 1154.84 C 323.332 1162.03 327.227 1172.36 334.006 1179.97 L 335.015 1181.09 L 334.478 1182.01 L 331.25 1182.17 L 309.163 1182.04 C 311.311 1172.85 313.947 1163.87 316.664 1154.84 z"/>
<path transform="translate(0,0)" fill="rgb(255,255,255)" d="M 781.82 1121 C 784.319 1125.62 782.834 1138.17 782.782 1143.8 L 768.691 1143.73 C 768.147 1142.1 767.065 1139.62 767.135 1137.91 C 767.385 1131.87 777.323 1124.48 781.82 1121 z"/>
<path transform="translate(0,0)" fill="rgb(36,54,77)" d="M 1024.62 1240.43 L 1026.63 1240.27 C 1081.95 1236.45 1141.02 1254.78 1182.57 1291.73 C 1218.55 1323.73 1237.55 1370.59 1240.18 1418.08 C 1242.97 1468.45 1227.54 1519.5 1193.32 1557.11 C 1154.71 1599.54 1101.24 1619.59 1044.75 1622.13 C 989.939 1625.02 933.82 1608.01 892.281 1571.59 C 853.834 1537.87 832.991 1491.19 829.677 1440.5 C 826.541 1392.53 841.078 1345.56 873.008 1309.42 C 911.879 1265.41 966.907 1244.07 1024.62 1240.43 z"/>
<path transform="translate(0,0)" fill="rgb(255,255,255)" d="M 1024.23 1322.79 C 1084.31 1316.1 1138.42 1359.4 1145.08 1419.48 C 1151.74 1479.55 1108.43 1533.65 1048.35 1540.29 C 988.298 1546.93 934.231 1503.64 927.572 1443.59 C 920.913 1383.55 964.184 1329.46 1024.23 1322.79 z"/>
<path transform="translate(0,0)" fill="rgb(36,54,77)" d="M 433.124 1246.07 C 465.932 1245.5 498.833 1245.92 531.648 1245.89 C 581.699 1245.83 640.59 1240.91 688.042 1258.13 C 713.517 1267.38 737.359 1283.17 748.998 1308.44 C 758.798 1329.67 759.703 1353.94 751.511 1375.84 C 741.143 1402.86 719.961 1414.76 694.864 1426 C 700.814 1427.9 706.802 1429.77 712.665 1431.93 C 736.765 1440.81 757.719 1456.85 768.388 1480.79 C 778.79 1504.14 776.363 1528.51 767.35 1551.74 C 757.975 1571.82 743.074 1587.31 723.411 1597.56 C 707.852 1605.67 690.276 1610.28 673.003 1612.88 C 613.452 1621.81 550.915 1618.35 490.825 1618.25 C 477.059 1618.22 443.298 1620.32 431.406 1616.63 C 431.175 1615.55 430.936 1614.47 430.771 1613.37 C 428.583 1598.83 429.839 1582.97 429.871 1568.24 L 429.973 1487.48 L 429.903 1334.8 C 429.892 1308.33 428.928 1281.42 430.075 1254.99 C 430.252 1250.9 430.696 1249.42 433.124 1246.07 z"/>
<path transform="translate(0,0)" fill="rgb(255,255,255)" d="M 527.539 1466.7 C 538.82 1466.41 550.165 1466.54 561.452 1466.55 C 589.778 1466.57 648.758 1461.29 669.432 1483.11 C 676.359 1490.42 677.945 1499.46 677.244 1509.23 C 676.466 1520.07 671.242 1527.2 663.395 1534.16 C 655.824 1539.24 647.526 1542.03 638.626 1543.69 C 620.985 1546.98 602.465 1546.08 584.581 1546.03 L 527.499 1546.04 C 526.707 1519.65 527.394 1493.1 527.539 1466.7 z"/>
<path transform="translate(0,0)" fill="rgb(255,255,255)" d="M 527.582 1319.95 C 553.058 1319.82 578.552 1319.55 604.027 1319.78 C 620.078 1319.93 639.977 1322.39 651.54 1334.83 C 657.777 1341.55 659.409 1349.75 658.924 1358.67 C 658.331 1369.57 653.363 1376.86 645.608 1384.02 C 638.471 1388.85 631.291 1392.04 622.918 1393.99 C 599.657 1399.39 552.579 1396.41 527.703 1396.22 C 527.535 1370.83 526.923 1345.33 527.582 1319.95 z"/>
<path transform="translate(0,0)" fill="rgb(36,54,77)" d="M 1272.67 1249 C 1383.12 1249.94 1493.57 1249.99 1604.02 1249.16 L 1603.8 1327.06 L 1487.66 1327.11 C 1486.93 1384.96 1487.57 1442.89 1487.57 1500.75 C 1487.4 1540.16 1487.44 1579.56 1487.69 1618.97 L 1390.06 1618.89 L 1390.26 1327.86 C 1376.23 1326.84 1361.9 1327.25 1347.83 1327.19 C 1322.76 1327.03 1297.69 1327.11 1272.62 1327.43 C 1272.87 1301.28 1272.88 1275.14 1272.67 1249 z"/>
<path transform="translate(0,0)" fill="rgb(36,54,77)" d="M 819.228 470.445 C 850.82 470.995 896.222 466.54 925.524 472.719 C 945.975 477.032 964.743 487.504 976.272 505.351 C 987.132 522.163 988.932 544.653 984.648 563.868 C 979.843 585.422 966.305 597.979 948.4 609.539 C 963.377 632.459 980.57 653.744 995.149 676.979 L 971.921 677.005 L 943.953 677.008 C 933.563 656.387 918.104 636.245 904.466 617.608 C 890.108 617.91 875.721 617.83 861.358 617.929 C 861.047 637.599 861.255 657.321 861.211 676.996 L 818.965 677.011 C 818.386 648.351 818.929 619.59 818.98 590.921 L 819.228 470.445 z"/>
<path transform="translate(0,0)" fill="rgb(255,255,255)" d="M 861.201 507.994 C 881.953 507.753 913.639 503.441 930.654 517.158 C 938.239 523.272 942.021 532.497 942.625 542.068 C 943.332 553.275 939.108 561.851 932.03 570.132 C 913.123 584.669 884.038 580.933 861.41 580.809 C 861.117 556.539 861.047 532.266 861.201 507.994 z"/>
<path transform="translate(0,0)" fill="rgb(242,132,54)" d="M 1733.98 859.164 C 1736.77 864.927 1734.52 1166.33 1734.67 1199.75 C 1725.27 1199.65 1657.73 1200.19 1654.37 1198.74 L 1653.9 1196.25 L 1653.87 864.545 C 1659.34 866.781 1664.97 869.075 1670.67 870.655 C 1694.69 877.309 1713.14 871.235 1733.98 859.164 z"/>
<path transform="translate(0,0)" fill="rgb(36,54,77)" d="M 1253.81 470.485 L 1299.4 470.097 C 1328.96 469.916 1357.99 469.873 1382.06 489.704 C 1396.3 501.435 1404.11 517.366 1405.87 535.63 C 1407.84 555.979 1403.76 577.391 1390.25 593.283 C 1375.6 610.517 1354.21 617.682 1332.24 619.492 C 1318.15 621.93 1296.99 619.989 1282.25 620.002 C 1281.56 638.946 1282.04 658.04 1282.03 677.001 L 1238.34 676.978 L 1238.64 470.734 L 1253.81 470.485 z"/>
<path transform="translate(0,0)" fill="rgb(255,255,255)" d="M 1281.07 507.69 C 1302.24 507.364 1334.56 503.327 1351.8 517.899 C 1359.43 524.35 1363.02 533.438 1363.57 543.266 C 1364.21 554.6 1360.42 563.355 1353.03 571.733 C 1334.75 588.193 1304.1 583.436 1281.41 583.061 C 1280.64 558.001 1281.14 532.77 1281.07 507.69 z"/>
<path transform="translate(0,0)" fill="rgb(36,54,77)" d="M 1089.23 470.035 C 1101.82 470.777 1114.45 470.546 1127.06 470.499 C 1143.8 505.925 1158.47 542.506 1173.83 578.551 C 1187.89 611.527 1202.67 644.217 1217.19 676.99 L 1170.82 676.976 C 1164.52 662.031 1158.5 646.969 1152.76 631.798 L 1127.5 631.897 L 1061.49 632.007 C 1054.84 646.754 1048.86 661.896 1042.57 676.805 L 997.262 677.032 C 1017.72 632.038 1037.68 586.823 1057.15 541.395 C 1067.52 517.668 1077.18 492.908 1089.23 470.035 z"/>
<path transform="translate(0,0)" fill="rgb(255,255,255)" d="M 1106.89 520.708 C 1111.54 525 1133.65 583.203 1138.38 594.565 L 1111.25 594.597 L 1077.04 594.405 C 1085.97 569.589 1097.47 545.425 1106.89 520.708 z"/>
<path transform="translate(0,0)" fill="rgb(36,54,77)" d="M 1573.09 470.607 L 1617 470.736 L 1616.93 675.988 C 1616.89 676.127 1616.89 676.294 1616.8 676.406 C 1614.32 679.331 1579.67 677.941 1573.36 677.899 L 1573.37 594.922 C 1542.04 594.708 1510.71 594.725 1479.38 594.973 C 1478.61 622.238 1479.13 649.67 1479.04 676.955 L 1435.77 676.997 L 1435.93 470.863 C 1450.34 470.659 1464.75 470.656 1479.17 470.854 L 1479.3 556.062 L 1573.15 555.644 C 1573.52 527.315 1573.14 498.94 1573.09 470.607 z"/>
<path transform="translate(0,0)" fill="rgb(36,54,77)" d="M 688.634 468.41 C 719.012 465.509 749.633 475.906 773.074 495 C 764.497 505.315 754.649 514.903 745.404 524.638 C 736.219 518.445 726.896 513.045 716.192 509.925 C 698.913 504.887 681.024 506.51 665.231 515.333 C 649.863 523.979 638.525 538.337 633.679 555.292 C 628.466 574.038 630.931 594.089 640.531 611.014 C 649.128 626.239 662.767 636.323 679.499 640.991 C 700.266 646.785 722.468 641.93 740.811 631.446 L 740.669 596.946 C 725.25 596.076 709.758 596.246 694.317 596.174 L 694.201 562.851 L 710.75 562.849 L 780.487 563.11 C 779.85 591.954 780.339 620.882 780.414 649.735 C 762.195 668.022 737.762 678.146 712.308 681.098 C 680.861 684.745 650.153 677.279 625.359 657.209 C 603.414 639.445 590.94 616.351 588.225 588.207 C 585.199 556.854 593.349 529.547 613.592 505.409 C 632.829 482.471 659.219 471.055 688.634 468.41 z"/>
<path transform="translate(0,0)" fill="rgb(242,132,54)" d="M 1556.53 927.913 L 1557.75 928.242 C 1560.09 936.274 1558.37 978.674 1558.37 989.706 C 1558.39 1059.42 1557.02 1129.31 1558.36 1199.01 C 1531.64 1198.76 1504.91 1198.72 1478.19 1198.87 L 1477.31 1198.11 C 1474.9 1184.29 1476.82 1152.93 1476.85 1137.56 C 1476.96 1084.11 1478.7 1030.04 1476.27 976.675 C 1503.88 962.276 1529.57 943.55 1556.53 927.913 z"/>
<path transform="translate(0,0)" fill="rgb(36,54,77)" d="M 1020.88 181.15 C 1025.76 180.818 1030.3 181.197 1034.89 183.044 C 1040.92 185.467 1045.61 190.002 1048.09 196.019 C 1051.68 204.735 1049.74 212.015 1046.19 220.199 C 1087.11 259.319 1126.04 301.02 1165.73 341.422 C 1172.39 337.238 1178.41 334.274 1186.5 335.134 C 1195.48 336.089 1201.85 342.215 1207.17 348.928 C 1251.41 334.321 1296 320.148 1340.53 306.446 C 1341.01 298.172 1343.08 290.62 1348.89 284.39 C 1353.94 278.992 1360.49 276.937 1367.73 276.787 C 1374.79 276.641 1381.81 278.528 1386.83 283.732 C 1391.72 288.792 1393.88 296.097 1393.6 303.029 C 1393.27 310.665 1389.84 317.837 1384.11 322.894 C 1378.86 327.552 1372.04 330.003 1365.02 329.255 C 1355.37 328.229 1349.01 322.355 1343.19 315.236 C 1299.61 330.412 1255.07 344.175 1210.87 357.452 C 1210.38 360.831 1210 364.29 1209.27 367.626 C 1207.81 374.273 1203.4 380.321 1197.66 383.947 C 1191.11 388.087 1182.82 389.15 1175.37 387.132 C 1168.69 385.324 1162.94 380.981 1159.69 374.833 C 1155.06 366.107 1156.61 356.969 1159.61 348.064 C 1119.58 308.248 1079.91 268.065 1040.6 227.521 C 1038.47 228.756 1036.28 229.947 1033.93 230.721 C 1024.68 233.764 1016.58 231.505 1008.1 227.638 C 993.977 237.501 981.387 249.368 968.344 260.574 L 916.051 305.2 C 918.682 311.2 919.715 316.643 919.838 323.191 C 918.582 329.941 915.419 335.573 910.058 339.947 C 904.606 344.395 897.304 346.41 890.333 345.717 C 883.228 345.02 876.687 341.548 872.129 336.054 C 865.859 328.345 865.938 321.222 867.126 311.949 C 832.747 291.325 797.68 271.922 763.528 250.91 C 759.445 255.166 754.372 259.039 748.577 260.521 C 740.182 262.666 733.677 259.53 726.715 255.265 C 693.123 291.569 659.041 327.418 624.479 362.8 C 628.174 369.694 629.893 376.518 628.045 384.313 C 626.266 391.821 620.37 397.909 613.88 401.719 C 608.654 404.788 602.679 405.914 596.791 404.23 C 590.001 402.287 584.248 396.812 580.839 390.769 C 577.069 384.086 576.461 376.556 578.762 369.269 C 580.832 362.715 584.921 357.096 591.261 354.16 C 600.592 349.839 609.295 352.191 618.331 355.548 C 653.471 320.647 686.221 283.354 721.25 248.314 C 718.149 242.687 716.59 237.006 717.259 230.526 C 718.017 223.636 721.615 217.376 727.186 213.253 C 733.273 208.721 740.999 206.99 748.438 208.492 C 755.252 209.806 761.649 213.655 765.35 219.619 C 770.002 227.113 769.592 234.547 767.794 242.841 C 802.47 262.584 836.915 282.728 871.124 303.269 C 875.971 298.576 881.37 294.552 888.088 293.094 C 896.078 291.359 902.398 293.744 909.014 298.11 C 940.108 272.477 970.907 246.489 1001.41 220.15 L 1000.83 218.476 C 1000.54 217.657 1000.24 216.843 999.98 216.016 C 997.673 208.759 998.054 200.03 1001.9 193.337 C 1006.2 185.861 1012.86 183.069 1020.88 181.15 z"/>
<path transform="translate(0,0)" fill="rgb(255,255,255)" d="M 1180.89 343.56 C 1190.82 342.421 1199.83 349.477 1201.09 359.392 C 1202.35 369.307 1195.41 378.397 1185.52 379.788 C 1179 380.704 1172.49 378.044 1168.49 372.824 C 1164.48 367.605 1163.59 360.633 1166.16 354.575 C 1168.73 348.517 1174.36 344.309 1180.89 343.56 z"/>
<path transform="translate(0,0)" fill="rgb(255,255,255)" d="M 887.535 302.488 C 896.965 299.36 907.136 304.525 910.174 313.985 C 913.211 323.445 907.948 333.566 898.46 336.512 C 889.099 339.419 879.145 334.242 876.148 324.91 C 873.152 315.578 878.232 305.575 887.535 302.488 z"/>
<path transform="translate(0,0)" fill="rgb(255,255,255)" d="M 1367.29 284.62 C 1377.2 284.492 1385.32 292.464 1385.38 302.38 C 1385.44 312.297 1377.42 320.365 1367.5 320.357 C 1357.68 320.349 1349.71 312.416 1349.65 302.595 C 1349.59 292.774 1357.47 284.746 1367.29 284.62 z"/>
<path transform="translate(0,0)" fill="rgb(255,255,255)" d="M 738.052 217.436 C 744.194 215.57 750.864 217.179 755.479 221.639 C 760.095 226.099 761.932 232.71 760.278 238.912 C 758.624 245.114 753.739 249.932 747.515 251.501 C 738.206 253.849 728.724 248.339 726.154 239.088 C 723.585 229.837 728.866 220.226 738.052 217.436 z"/>
<path transform="translate(0,0)" fill="rgb(255,255,255)" d="M 597.266 361.59 C 606.126 358.428 615.886 362.944 619.212 371.744 C 622.537 380.544 618.202 390.386 609.465 393.873 C 603.668 396.187 597.073 395.19 592.219 391.267 C 587.364 387.343 585.007 381.104 586.053 374.95 C 587.1 368.797 591.388 363.688 597.266 361.59 z"/>
<path transform="translate(0,0)" fill="rgb(255,255,255)" d="M 1019.37 190.38 C 1025.31 188.607 1031.75 190.185 1036.2 194.505 C 1040.65 198.824 1042.42 205.212 1040.83 211.207 C 1039.23 217.201 1034.52 221.866 1028.52 223.405 C 1019.47 225.721 1010.24 220.374 1007.75 211.378 C 1005.26 202.383 1010.42 193.047 1019.37 190.38 z"/>
<path transform="translate(0,0)" fill="rgb(242,132,54)" d="M 1110.79 1007.88 C 1138.94 1010.46 1166.83 1017.67 1195.02 1019.28 L 1195.04 1199.05 L 1111.14 1198.89 L 1110.79 1007.88 z"/>
<path transform="translate(0,0)" fill="rgb(36,54,77)" d="M 408.893 469.95 L 579.042 470.185 L 579.016 507.705 C 557.967 508.133 536.805 507.716 515.747 507.702 L 515.754 606.5 L 515.433 669.852 C 500.762 669.755 486.091 669.571 471.422 669.301 C 470.114 615.533 471.298 561.518 471.038 507.713 C 450.323 507.418 429.606 507.323 408.89 507.428 L 408.893 469.95 z"/>
<path transform="translate(0,0)" fill="rgb(242,132,54)" d="M 1292.87 1039.33 C 1303.38 1046.24 1313.86 1052.82 1326.49 1054.9 C 1346.53 1058.2 1363.06 1051.35 1379.27 1040.17 C 1379.78 1087.36 1379.95 1134.55 1379.79 1181.75 L 1379.87 1199.17 L 1292.81 1199.12 L 1292.87 1039.33 z"/>
<path transform="translate(0,0)" fill="rgb(242,132,54)" d="M 1018.81 1108.1 C 1021.17 1111.03 1019.95 1190.72 1019.97 1199.38 C 999.408 1199.04 978.846 1198.91 958.283 1199 C 955.577 1195.07 957.017 1138.58 957.033 1129.33 C 977.697 1122.46 998.292 1115.39 1018.81 1108.1 z"/>
</svg>